<svg width="20" height="20" viewBox="0 0 20 20" fill="none" xmlns="http://www.w3.org/2000/svg">
																		<path d="M10 0C4.48606 0 0 4.48606 0 10C0 15.5139 4.48606 20 10 20C15.5139 20 20 15.5139 20 10C20 4.48606 15.5139 0 10 0ZM11.1202 14.3841C10.9082 14.538 10.6798 14.699 10.4322 14.8649C10.3048 14.9522 10.154 14.9988 9.99952 14.9988C9.84508 14.9988 9.69425 14.9522 9.56683 14.8649C7.6774 13.5822 6.85913 12.7014 6.40817 12.1529C5.44663 10.9812 4.98606 9.77789 4.99952 8.475V8.44423C5.0006 8.40672 5.01263 8.37035 5.03413 8.33959C5.05563 8.30884 5.08565 8.28504 5.12051 8.27114C5.15536 8.25724 5.19352 8.25384 5.23028 8.26136C5.26705 8.26888 5.30081 8.28699 5.3274 8.31346L11.1423 14.0923C11.1621 14.1119 11.1773 14.1356 11.187 14.1616C11.1967 14.1877 11.2007 14.2156 11.1986 14.2433C11.1965 14.2711 11.1884 14.298 11.1749 14.3223C11.1613 14.3466 11.1427 14.3677 11.1202 14.3841ZM14.3894 15.1591C14.2452 15.3033 14.0496 15.3843 13.8457 15.3843C13.6417 15.3843 13.4462 15.3033 13.3019 15.1591L4.84038 6.6976C4.70222 6.55216 4.62632 6.35851 4.62889 6.15792C4.63146 5.95734 4.71228 5.76569 4.85413 5.62384C4.99598 5.482 5.18763 5.40117 5.38821 5.3986C5.5888 5.39604 5.78245 5.47193 5.92789 5.6101L14.3894 14.0716C14.5336 14.2158 14.6147 14.4114 14.6148 14.6153C14.6149 14.8192 14.5335 15.0148 14.3894 15.1591ZM13.7115 12.0043C13.6952 12.0265 13.6742 12.0448 13.65 12.058C13.6258 12.0712 13.599 12.0789 13.5715 12.0806C13.544 12.0823 13.5164 12.0779 13.4908 12.0678C13.4651 12.0577 13.442 12.0421 13.4231 12.0221L7.46154 6.09856C7.43437 6.0718 7.41577 6.03757 7.4081 6.00022C7.40043 5.96286 7.40404 5.92407 7.41846 5.88877C7.43289 5.85348 7.45749 5.82327 7.48913 5.80198C7.52077 5.78069 7.55802 5.76929 7.59615 5.76923H7.67067C8.65144 5.76923 9.35337 6.28077 9.79135 6.75096C9.81804 6.77977 9.85039 6.80275 9.88638 6.81847C9.92236 6.83419 9.96121 6.8423 10.0005 6.8423C10.0398 6.8423 10.0786 6.83419 10.1146 6.81847C10.1506 6.80275 10.1829 6.77977 10.2096 6.75096C10.6476 6.28077 11.3495 5.76923 12.3303 5.76923C13.7875 5.76923 14.9851 6.98413 15 8.4774C15.0125 9.72404 14.5904 10.8798 13.7115 12.0043Z" fill="#5B6E82"></path>
																		</svg>