<svg width="87" height="27" viewBox="0 0 87 27" fill="none" xmlns="http://www.w3.org/2000/svg">
<path d="M0 5C0 2.23858 2.23858 0 5 0H82C84.7614 0 87 2.23858 87 5V17C87 19.7614 84.7614 22 82 22H5C2.23858 22 0 19.7614 0 17V5Z" fill="#345B82"/>
<path d="M6 18H12L13 22L9 27L5 22L6 18Z" fill="#345B82"/>
<path opacity="0.33" d="M12.5644 15.088C11.9777 15.088 11.4314 14.989 10.9254 14.791C10.4267 14.593 9.99406 14.318 9.62739 13.966C9.26072 13.6067 8.97472 13.1887 8.76939 12.712C8.56406 12.2353 8.46139 11.7147 8.46139 11.15C8.46139 10.5853 8.56406 10.0647 8.76939 9.588C8.97472 9.11133 9.26072 8.697 9.62739 8.345C9.99406 7.98567 10.4267 7.707 10.9254 7.509C11.4241 7.311 11.9704 7.212 12.5644 7.212C13.1511 7.212 13.6901 7.311 14.1814 7.509C14.6801 7.69967 15.1127 7.97467 15.4794 8.334C15.8534 8.686 16.1394 9.10033 16.3374 9.577C16.5427 10.0537 16.6454 10.578 16.6454 11.15C16.6454 11.722 16.5427 12.2463 16.3374 12.723C16.1394 13.1997 15.8534 13.6177 15.4794 13.977C15.1127 14.329 14.6801 14.604 14.1814 14.802C13.6901 14.9927 13.1511 15.088 12.5644 15.088ZM12.5644 14.109C12.9897 14.109 13.3821 14.0357 13.7414 13.889C14.1081 13.7423 14.4234 13.537 14.6874 13.273C14.9587 13.0017 15.1677 12.6863 15.3144 12.327C15.4684 11.9677 15.5454 11.5753 15.5454 11.15C15.5454 10.7247 15.4684 10.3323 15.3144 9.973C15.1677 9.61367 14.9587 9.302 14.6874 9.038C14.4234 8.76667 14.1081 8.55767 13.7414 8.411C13.3821 8.26433 12.9897 8.191 12.5644 8.191C12.1317 8.191 11.7321 8.26433 11.3654 8.411C11.0061 8.55767 10.6907 8.76667 10.4194 9.038C10.1481 9.302 9.93539 9.61367 9.78139 9.973C9.63472 10.3323 9.56139 10.7247 9.56139 11.15C9.56139 11.5753 9.63472 11.9677 9.78139 12.327C9.93539 12.6863 10.1481 13.0017 10.4194 13.273C10.6907 13.537 11.0061 13.7423 11.3654 13.889C11.7321 14.0357 12.1317 14.109 12.5644 14.109ZM20.9426 15.088C20.4586 15.088 20.0296 15.011 19.6556 14.857C19.2889 14.703 18.9736 14.4757 18.7096 14.175C18.4456 13.867 18.2439 13.482 18.1046 13.02C17.9726 12.5507 17.9066 12.0007 17.9066 11.37C17.9066 10.8713 17.9506 10.424 18.0386 10.028C18.1266 9.632 18.2513 9.28 18.4126 8.972C18.5813 8.664 18.7866 8.39633 19.0286 8.169C19.2779 7.94167 19.5566 7.75467 19.8646 7.608C20.1799 7.454 20.5246 7.33667 20.8986 7.256L23.5606 6.662L23.7146 7.641L21.2616 8.169C21.1149 8.19833 20.9389 8.24233 20.7336 8.301C20.5283 8.35967 20.3193 8.45133 20.1066 8.576C19.8939 8.69333 19.6959 8.85833 19.5126 9.071C19.3293 9.28367 19.1826 9.56233 19.0726 9.907C18.9626 10.2443 18.9076 10.6623 18.9076 11.161C18.9076 11.3003 18.9113 11.4067 18.9186 11.48C18.9259 11.5533 18.9333 11.6267 18.9406 11.7C18.9553 11.7733 18.9663 11.8833 18.9736 12.03L18.5336 11.579C18.6509 11.1757 18.8379 10.8237 19.0946 10.523C19.3513 10.2223 19.6593 9.99133 20.0186 9.83C20.3853 9.66133 20.7849 9.577 21.2176 9.577C21.7603 9.577 22.2406 9.69433 22.6586 9.929C23.0839 10.1637 23.4176 10.4863 23.6596 10.897C23.9016 11.3077 24.0226 11.777 24.0226 12.305C24.0226 12.8403 23.8943 13.3207 23.6376 13.746C23.3883 14.164 23.0326 14.494 22.5706 14.736C22.1086 14.9707 21.5659 15.088 20.9426 15.088ZM21.0416 14.208C21.4156 14.208 21.7456 14.1273 22.0316 13.966C22.3176 13.7973 22.5413 13.5737 22.7026 13.295C22.8639 13.009 22.9446 12.69 22.9446 12.338C22.9446 11.986 22.8639 11.6743 22.7026 11.403C22.5413 11.1317 22.3176 10.919 22.0316 10.765C21.7456 10.6037 21.4083 10.523 21.0196 10.523C20.6529 10.523 20.3229 10.6 20.0296 10.754C19.7363 10.9007 19.5089 11.1097 19.3476 11.381C19.1863 11.645 19.1056 11.953 19.1056 12.305C19.1056 12.657 19.1863 12.9797 19.3476 13.273C19.5163 13.559 19.7436 13.7863 20.0296 13.955C20.3229 14.1237 20.6603 14.208 21.0416 14.208ZM32.2565 15L30.3975 12.162L31.2665 11.634L33.5105 15H32.2565ZM29.1875 12.536V11.634H31.0795V12.536H29.1875ZM31.3655 12.206L30.3645 12.074L32.2235 9.17H33.3565L31.3655 12.206ZM25.7115 15H24.4575L26.6905 11.634L27.5595 12.162L25.7115 15ZM29.5065 15H28.4505V9.17H29.5065V15ZM28.7695 12.536H26.8885V11.634H28.7695V12.536ZM26.6025 12.206L24.6115 9.17H25.7335L27.5925 12.074L26.6025 12.206ZM38.14 15V13.768L38.085 13.537V11.436C38.085 10.9887 37.953 10.644 37.689 10.402C37.4323 10.1527 37.0437 10.028 36.523 10.028C36.1783 10.028 35.841 10.0867 35.511 10.204C35.181 10.314 34.9023 10.4643 34.675 10.655L34.235 9.863C34.5357 9.621 34.895 9.43767 35.313 9.313C35.7383 9.181 36.182 9.115 36.644 9.115C37.4433 9.115 38.0593 9.30933 38.492 9.698C38.9247 10.0867 39.141 10.6807 39.141 11.48V15H38.14ZM36.226 15.066C35.7933 15.066 35.412 14.9927 35.082 14.846C34.7593 14.6993 34.51 14.4977 34.334 14.241C34.158 13.977 34.07 13.68 34.07 13.35C34.07 13.0347 34.1433 12.7487 34.29 12.492C34.444 12.2353 34.6897 12.03 35.027 11.876C35.3717 11.722 35.8337 11.645 36.413 11.645H38.261V12.404H36.457C35.929 12.404 35.5733 12.492 35.39 12.668C35.2067 12.844 35.115 13.0567 35.115 13.306C35.115 13.592 35.2287 13.823 35.456 13.999C35.6833 14.1677 35.9987 14.252 36.402 14.252C36.798 14.252 37.1427 14.164 37.436 13.988C37.7367 13.812 37.953 13.5553 38.085 13.218L38.294 13.944C38.1547 14.2887 37.909 14.5637 37.557 14.769C37.205 14.967 36.7613 15.066 36.226 15.066ZM40.0745 14.989L40.1405 14.098C40.1919 14.1053 40.2395 14.1127 40.2835 14.12C40.3275 14.1273 40.3679 14.131 40.4045 14.131C40.6392 14.131 40.8225 14.0503 40.9545 13.889C41.0939 13.7277 41.1965 13.515 41.2625 13.251C41.3285 12.9797 41.3762 12.6753 41.4055 12.338C41.4349 12.0007 41.4569 11.6633 41.4715 11.326L41.5705 9.17H46.0475V15H44.9915V9.786L45.2445 10.094H42.2525L42.4945 9.775L42.4175 11.392C42.3955 11.9053 42.3552 12.3857 42.2965 12.833C42.2379 13.2803 42.1462 13.6727 42.0215 14.01C41.9042 14.3473 41.7392 14.6113 41.5265 14.802C41.3212 14.9927 41.0535 15.088 40.7235 15.088C40.6282 15.088 40.5255 15.077 40.4155 15.055C40.3129 15.0403 40.1992 15.0183 40.0745 14.989ZM50.5864 15.066C49.9997 15.066 49.4791 14.9377 49.0244 14.681C48.5697 14.4243 48.2104 14.0723 47.9464 13.625C47.6824 13.1703 47.5504 12.657 47.5504 12.085C47.5504 11.5057 47.6824 10.9923 47.9464 10.545C48.2104 10.0977 48.5697 9.74933 49.0244 9.5C49.4791 9.24333 49.9997 9.115 50.5864 9.115C51.1657 9.115 51.6827 9.24333 52.1374 9.5C52.5994 9.74933 52.9587 10.0977 53.2154 10.545C53.4794 10.985 53.6114 11.4983 53.6114 12.085C53.6114 12.6643 53.4794 13.1777 53.2154 13.625C52.9587 14.0723 52.5994 14.4243 52.1374 14.681C51.6827 14.9377 51.1657 15.066 50.5864 15.066ZM50.5864 14.142C50.9604 14.142 51.2941 14.0577 51.5874 13.889C51.8881 13.7203 52.1227 13.482 52.2914 13.174C52.4601 12.8587 52.5444 12.4957 52.5444 12.085C52.5444 11.667 52.4601 11.3077 52.2914 11.007C52.1227 10.699 51.8881 10.4607 51.5874 10.292C51.2941 10.1233 50.9604 10.039 50.5864 10.039C50.2124 10.039 49.8787 10.1233 49.5854 10.292C49.2921 10.4607 49.0574 10.699 48.8814 11.007C48.7054 11.3077 48.6174 11.667 48.6174 12.085C48.6174 12.4957 48.7054 12.8587 48.8814 13.174C49.0574 13.482 49.2921 13.7203 49.5854 13.889C49.8787 14.0577 50.2124 14.142 50.5864 14.142ZM55.1363 15V9.17H57.8423C58.5243 9.17 59.0596 9.302 59.4483 9.566C59.8443 9.82267 60.0423 10.1893 60.0423 10.666C60.0423 11.1427 59.8553 11.513 59.4813 11.777C59.1146 12.0337 58.6269 12.162 58.0183 12.162L58.1833 11.876C58.8799 11.876 59.3969 12.0043 59.7343 12.261C60.0716 12.5177 60.2403 12.8953 60.2403 13.394C60.2403 13.9 60.0496 14.296 59.6683 14.582C59.2943 14.8607 58.7186 15 57.9413 15H55.1363ZM56.1703 14.186H57.8643C58.3043 14.186 58.6343 14.12 58.8543 13.988C59.0743 13.8487 59.1843 13.6287 59.1843 13.328C59.1843 13.02 59.0816 12.7963 58.8763 12.657C58.6783 12.5103 58.3629 12.437 57.9303 12.437H56.1703V14.186ZM56.1703 11.678H57.7543C58.1576 11.678 58.4619 11.6047 58.6673 11.458C58.8799 11.304 58.9863 11.0913 58.9863 10.82C58.9863 10.5413 58.8799 10.3323 58.6673 10.193C58.4619 10.0537 58.1576 9.984 57.7543 9.984H56.1703V11.678ZM65.4681 15V13.768L65.4131 13.537V11.436C65.4131 10.9887 65.2811 10.644 65.0171 10.402C64.7605 10.1527 64.3718 10.028 63.8511 10.028C63.5065 10.028 63.1691 10.0867 62.8391 10.204C62.5091 10.314 62.2305 10.4643 62.0031 10.655L61.5631 9.863C61.8638 9.621 62.2231 9.43767 62.6411 9.313C63.0665 9.181 63.5101 9.115 63.9721 9.115C64.7715 9.115 65.3875 9.30933 65.8201 9.698C66.2528 10.0867 66.4691 10.6807 66.4691 11.48V15H65.4681ZM63.5541 15.066C63.1215 15.066 62.7401 14.9927 62.4101 14.846C62.0875 14.6993 61.8381 14.4977 61.6621 14.241C61.4861 13.977 61.3981 13.68 61.3981 13.35C61.3981 13.0347 61.4715 12.7487 61.6181 12.492C61.7721 12.2353 62.0178 12.03 62.3551 11.876C62.6998 11.722 63.1618 11.645 63.7411 11.645H65.5891V12.404H63.7851C63.2571 12.404 62.9015 12.492 62.7181 12.668C62.5348 12.844 62.4431 13.0567 62.4431 13.306C62.4431 13.592 62.5568 13.823 62.7841 13.999C63.0115 14.1677 63.3268 14.252 63.7301 14.252C64.1261 14.252 64.4708 14.164 64.7641 13.988C65.0648 13.812 65.2811 13.5553 65.4131 13.218L65.6221 13.944C65.4828 14.2887 65.2371 14.5637 64.8851 14.769C64.5331 14.967 64.0895 15.066 63.5541 15.066ZM69.5257 15V9.819L69.7897 10.094H67.3917V9.17H72.7157V10.094H70.3287L70.5817 9.819V15H69.5257ZM76.4905 11.15C77.2311 11.1573 77.7958 11.326 78.1845 11.656C78.5731 11.986 78.7675 12.4517 78.7675 13.053C78.7675 13.6837 78.5548 14.1713 78.1295 14.516C77.7041 14.8533 77.1028 15.0183 76.3255 15.011L73.7955 15V9.17H74.8515V11.139L76.4905 11.15ZM76.2375 14.208C76.7141 14.2153 77.0735 14.12 77.3155 13.922C77.5648 13.724 77.6895 13.4307 77.6895 13.042C77.6895 12.6607 77.5685 12.382 77.3265 12.206C77.0845 12.03 76.7215 11.9383 76.2375 11.931L74.8515 11.909V14.197L76.2375 14.208Z" fill="white"/>
</svg>
