<svg width="363" height="128" viewBox="0 0 363 128" fill="none" xmlns="http://www.w3.org/2000/svg">
<g filter="url(#filter0_d_1_132)">
<g clip-path="url(#clip0_1_132)">
<rect x="4" width="355" height="120" rx="10" fill="#0F2133" fill-opacity="0.5" shape-rendering="crispEdges"/>
<path opacity="0.2" d="M259.286 99H222.947C220.215 99 218.286 96.3211 219.154 93.7299L232.213 54.7299C232.759 53.0992 234.286 52 236.006 52H272.345C275.077 52 277.005 54.6789 276.138 57.2701L263.079 96.2701C262.533 97.9008 261.005 99 259.286 99Z" stroke="white" stroke-width="2"/>
<path opacity="0.4" d="M226.286 90H189.947C187.215 90 185.286 87.3211 186.154 84.7299L199.213 45.7299C199.759 44.0992 201.286 43 203.006 43H239.345C242.077 43 244.005 45.6789 243.138 48.2701L230.079 87.2701C229.533 88.9008 228.005 90 226.286 90Z" stroke="white" stroke-width="2"/>
<path opacity="0.6" d="M193.286 84H156.947C154.215 84 152.286 81.3211 153.154 78.7299L166.213 39.7299C166.759 38.0992 168.286 37 170.006 37H206.345C209.077 37 211.005 39.6789 210.138 42.2701L197.079 81.2701C196.533 82.9008 195.005 84 193.286 84Z" stroke="white" stroke-width="2"/>
<path opacity="0.8" d="M160.286 79H123.947C121.215 79 119.286 76.3211 120.154 73.7299L133.213 34.7299C133.759 33.0992 135.286 32 137.006 32H173.345C176.077 32 178.005 34.6789 177.138 37.2701L164.079 76.2701C163.533 77.9008 162.005 79 160.286 79Z" stroke="white" stroke-width="2"/>
<path d="M132.027 66.5876C131.344 68.626 129.435 70 127.286 70H90.9471C87.5314 70 85.1213 66.6513 86.2058 63.4124L99.2647 24.4124C99.9472 22.374 101.856 21 104.006 21H140.345C143.76 21 146.17 24.3487 145.086 27.5876L132.027 66.5876Z" fill="#FE3355"/>
<path opacity="0.2" d="M191 -23L296.545 143L402 143L296.545 -23H191Z" fill="url(#paint0_linear_1_132)"/>
<path opacity="0.2" d="M253 -23L358.545 143L464 143L358.545 -23H253Z" fill="url(#paint1_linear_1_132)"/>
<path opacity="0.2" d="M-122 -23L-16.4546 143L89 143L-16.4546 -23H-122Z" fill="url(#paint2_linear_1_132)"/>
</g>
</g>
<defs>
<filter id="filter0_d_1_132" x="0" y="0" width="363" height="128" filterUnits="userSpaceOnUse" color-interpolation-filters="sRGB">
<feFlood flood-opacity="0" result="BackgroundImageFix"/>
<feColorMatrix in="SourceAlpha" type="matrix" values="0 0 0 0 0 0 0 0 0 0 0 0 0 0 0 0 0 0 127 0" result="hardAlpha"/>
<feOffset dy="4"/>
<feGaussianBlur stdDeviation="2"/>
<feComposite in2="hardAlpha" operator="out"/>
<feColorMatrix type="matrix" values="0 0 0 0 0 0 0 0 0 0 0 0 0 0 0 0 0 0 0.25 0"/>
<feBlend mode="normal" in2="BackgroundImageFix" result="effect1_dropShadow_1_132"/>
<feBlend mode="normal" in="SourceGraphic" in2="effect1_dropShadow_1_132" result="shape"/>
</filter>
<linearGradient id="paint0_linear_1_132" x1="133.364" y1="98.8381" x2="407.254" y2="98.8381" gradientUnits="userSpaceOnUse">
<stop stop-color="#FE3355" stop-opacity="0"/>
<stop offset="1" stop-color="#FE3355"/>
</linearGradient>
<linearGradient id="paint1_linear_1_132" x1="195.364" y1="98.8381" x2="469.254" y2="98.8381" gradientUnits="userSpaceOnUse">
<stop stop-color="#FE3355" stop-opacity="0"/>
<stop offset="1" stop-color="#FE3355"/>
</linearGradient>
<linearGradient id="paint2_linear_1_132" x1="-179.636" y1="98.8381" x2="94.2545" y2="98.8381" gradientUnits="userSpaceOnUse">
<stop stop-color="#FE3355" stop-opacity="0"/>
<stop offset="1" stop-color="#FE3355"/>
</linearGradient>
<clipPath id="clip0_1_132">
<rect x="4" width="355" height="120" rx="10" fill="white"/>
</clipPath>
</defs>
</svg>
