<svg width="210" height="78" viewBox="0 0 210 78" fill="none" xmlns="http://www.w3.org/2000/svg">
<rect x="91" y="20" width="38" height="38" fill="#FE3355"/>
<path opacity="0.9" d="M209 77.3043V71.4348C209 63.1505 202.284 56.4348 194 56.4348M179 77.3043V71.4348M179 71.4348C179 63.1505 185.716 56.4348 194 56.4348M179 71.4348C179 63.1505 172.284 56.4348 164 56.4348M194 56.4348C199.403 56.4348 203.783 52.055 203.783 46.6522C203.783 41.2494 199.403 36.8696 194 36.8696M194 56.4348C188.597 56.4348 184.217 52.055 184.217 46.6522C184.217 41.2494 188.597 36.8696 194 36.8696M194 36.8696V35.5652C194 27.2809 187.284 20.5652 179 20.5652M149 77.3043V71.4348C149 63.1505 155.716 56.4348 164 56.4348M164 56.4348C169.403 56.4348 173.783 52.055 173.783 46.6522C173.783 41.2494 169.403 36.8696 164 36.8696M164 56.4348C158.597 56.4348 154.217 52.055 154.217 46.6522C154.217 41.2494 158.597 36.8696 164 36.8696M164 36.8696V35.5652C164 27.2809 170.716 20.5652 179 20.5652M179 20.5652C184.403 20.5652 188.783 16.1854 188.783 10.7826C188.783 5.37982 184.403 1 179 1C173.597 1 169.217 5.37982 169.217 10.7826C169.217 16.1854 173.597 20.5652 179 20.5652Z" stroke="white" stroke-width="2"/>
<path opacity="0.2" d="M61 77.3043V71.4348C61 63.1505 54.2843 56.4348 46 56.4348M31 77.3043V71.4348M31 71.4348C31 63.1505 37.7157 56.4348 46 56.4348M31 71.4348C31 63.1505 24.2843 56.4348 16 56.4348M46 56.4348C51.4028 56.4348 55.7826 52.055 55.7826 46.6522C55.7826 41.2494 51.4028 36.8696 46 36.8696M46 56.4348C40.5972 56.4348 36.2174 52.055 36.2174 46.6522C36.2174 41.2494 40.5972 36.8696 46 36.8696M46 36.8696V35.5652C46 27.2809 39.2843 20.5652 31 20.5652M1 77.3043V71.4348C1 63.1505 7.71573 56.4348 16 56.4348M16 56.4348C21.4028 56.4348 25.7826 52.055 25.7826 46.6522C25.7826 41.2494 21.4028 36.8696 16 36.8696M16 56.4348C10.5972 56.4348 6.21739 52.055 6.21739 46.6522C6.21739 41.2494 10.5972 36.8696 16 36.8696M16 36.8696V35.5652C16 27.2809 22.7157 20.5652 31 20.5652M31 20.5652C36.4028 20.5652 40.7826 16.1854 40.7826 10.7826C40.7826 5.37982 36.4028 1 31 1C25.5972 1 21.2174 5.37982 21.2174 10.7826C21.2174 16.1854 25.5972 20.5652 31 20.5652Z" stroke="white" stroke-width="2"/>
</svg>
